<svg xmlns="http://www.w3.org/2000/svg" viewBox="0 0 512 512">
  <defs>
    <linearGradient id="gradient" x1="0%" y1="0%" x2="100%" y2="100%">
      <stop offset="0%" stop-color="#fab1a0" />
      <stop offset="100%" stop-color="#e17055" />
    </linearGradient>
  </defs>
  <circle cx="256" cy="256" r="248" fill="#2d3436" stroke="#e17055" stroke-width="16"/>
  <path d="M416 192c0-11.2-2.6-21.8-12.2-29.4-15.2-12-40.4-11-55.8-1.6-18 10.8-26.2 30-26 50.4V232c0 23.2 2 45.4-7 67.2-8.6 21-25 37.8-45 44.6-33.8 11.6-69.6-6.8-83.4-38.6-6.6-15.4-7.6-32.6-7.6-49.2v-21c0-35.2-5.4-71.6-32.2-96-34-30.8-92.4-28-123.2 6.6-19.4 21.8-27.8 54.4-19.2 82.4 5.6 17.4 18.4 30.2 34 37.8 29.8 14.4 68.2 5.6 88.4-19.2 3-3.6 5.2-8 8.4-11.4 2.4-2.6 5.4-4.2 8.8-3.4 6.4 1.4 6 9.4 6 14.6v38.2c0 29.8 4.2 59.4 20.2 84.8 29.8 47.6 94.4 64.2 146.8 42.4 27.4-11.4 49.6-33.2 62.8-59.6 13.2-27 15.2-56.2 15.2-86V292c0-12.4-4.4-29.6 7.8-37.2 15.2-9.6 35-1 38.8 17 1.4 7.2 2.4 15 2.4 22.4v9.6c0 7 2.2 11 9.6 11 8.4 0 10.6-7.2 10.6-14.2V188c0-31.4-2.6-63.4-22.4-89.4-26.6-35-73.2-49.2-116-41-36.8 7-64.2 33.8-80.8 66.2-1.6 3-3 6.2-3.4 9.6-.4 2.8.8 5.4 3.4 6.6 3 1.2 5.6-.8 7.2-3 3.8-5.6 7.2-12 11.8-17 24.2-26.8 70.4-25.8 98.6-5.4 21.4 15.6 29.6 40.6 29.6 66.2-3-.2-6.2.2-8.8 1.8-11.2 6.8-17.6 19.6-19.4 32-2.6 18 3.2 36.6 3.2 54.6 0 24-9.8 46.4-22.6 65.8-14.4 21.4-36.8 36.6-62 42.2-50.6 11.6-96.2-22.6-112.4-70.4-6.6-19.4-8.4-40.2-8.4-60.6v-34.6c0-14.8-13.2-21.4-25.6-16-7.6 3.4-13.6 10.2-19.2 16.2-15.4 16.6-40.8 20.4-62.4 14.2-12.6-3.6-24-11.2-31-22.6-12.6-20.4-12-47.6-1.2-69 18.6-36.8 68.2-49.8 101.4-23.4 22 17.6 26.2 47 26.2 73.6v21c0 20 1 41 9.2 59.6 17.6 39.8 63.6 63.2 106.2 53.8 25.6-5.6 47.2-22.4 62-43.6 15.2-21.8 17.4-47.2 17.4-73v-44.8z" fill="url(#gradient)"/>
</svg>
